<svg width="37" height="36" viewBox="0 0 37 36" fill="none" xmlns="http://www.w3.org/2000/svg">
<path d="M18.3147 34.3828C27.3079 34.3828 34.5984 27.0923 34.5984 18.0991C34.5984 9.10588 27.3079 1.81543 18.3147 1.81543C9.32146 1.81543 2.03101 9.10588 2.03101 18.0991C2.03101 27.0923 9.32146 34.3828 18.3147 34.3828Z" fill="#41F9A1"/>
<path d="M18.3147 0.335083C8.5193 0.335083 0.550659 8.30372 0.550659 18.0991C0.550659 27.8945 8.5193 35.8631 18.3147 35.8631C28.11 35.8631 36.0787 27.8945 36.0787 18.0991C36.0787 8.30372 28.11 0.335083 18.3147 0.335083ZM18.3147 32.9024C10.1521 32.9024 3.51133 26.2617 3.51133 18.0991C3.51133 9.93653 10.1521 3.29575 18.3147 3.29575C26.4772 3.29575 33.118 9.93653 33.118 18.0991C33.118 26.2617 26.4772 32.9024 18.3147 32.9024Z" fill="#1C154E"/>
<path d="M23.8386 12.7107L17.4747 20.347L14.1795 17.0525C13.6021 16.4745 12.6636 16.4745 12.0863 17.0525C11.5082 17.6306 11.5082 18.5677 12.0863 19.1457L16.5273 23.5867C16.8063 23.865 17.1831 24.0205 17.5746 24.0205C17.5968 24.0205 17.6198 24.0205 17.642 24.019C18.0572 24.0005 18.4458 23.8073 18.7122 23.4875L26.1139 14.6055C26.6372 13.9771 26.5521 13.0445 25.9244 12.5205C25.296 11.9979 24.3619 12.0823 23.8386 12.7107Z" fill="#1C154E"/>
</svg>
